{"accessors":[{"bufferView":2,"componentType":5126,"count":9333,"max":[5.820718765258789,10.031749725341797,14.04815673828125],"min":[-7.046947002410889,-9.411163330078125,-0.32019099593162537],"type":"VEC3"},{"bufferView":2,"byteOffset":111996,"componentType":5126,"count":9333,"max":[0.9967759847640991,0.9991298317909241,0.9990893006324768],"min":[-0.9999953508377075,-0.9999586343765259,-0.9979932308197021],"type":"VEC3"},{"bufferView":1,"componentType":5126,"count":9333,"max":[1,1],"min":[0,0],"type":"VEC2"},{"bufferView":0,"componentType":5125,"count":16254,"max":[9332],"min":[0],"type":"SCALAR"},{"bufferView":2,"byteOffset":223992,"componentType":5126,"count":417,"max":[3.455380916595459,7.194275856018066,10.041460990905762],"min":[-3.130139112472534,-6.044215202331543,-1],"type":"VEC3"},{"bufferView":2,"byteOffset":228996,"componentType":5126,"count":417,"max":[0.9995132088661194,0.9945060014724731,0.9982871413230896],"min":[-0.9938091039657593,-0.997509777545929,-1],"type":"VEC3"},{"bufferView":1,"byteOffset":74664,"componentType":5126,"count":417,"max":[0.875,1],"min":[0.125,0],"type":"VEC2"},{"bufferView":0,"byteOffset":65016,"componentType":5125,"count":672,"max":[416],"min":[0],"type":"SCALAR"}],"asset":{"extras":{"author":"switoma392 (https://sketchfab.com/switoma392)","license":"CC-BY-4.0 (http://creativecommons.org/licenses/by/4.0/)","source":"https://sketchfab.com/3d-models/cherry-blossoms-7d8cb01c1a3e4735940a8c73f4223c52","title":"cherry blossoms"},"generator":"Sketchfab-8.55.0","version":"2.0"},"bufferViews":[{"buffer":0,"byteLength":67704,"byteOffset":0,"name":"floatBufferViews","target":34963},{"buffer":0,"byteLength":78000,"byteOffset":67704,"byteStride":8,"name":"floatBufferViews","target":34962},{"buffer":0,"byteLength":234000,"byteOffset":145704,"byteStride":12,"name":"floatBufferViews","target":34962}],"buffers":[{"byteLength":379704,"uri":"data:application/octet-stream;base64,"}],"images":[{"uri":"data:application/octet-stream;base64,"}],"materials":[{"alphaMode":"BLEND","doubleSided":true,"emissiveFactor":[0,0,0],"name":"1a9bbe6a8c1abd438b7e18b32cb5d3bd_t","pbrMetallicRoughness":{"baseColorFactor":[1,1,1,1],"baseColorTexture":{"index":0,"texCoord":0},"metallicFactor":0,"roughnessFactor":0.8063508326896291}},{"doubleSided":true,"emissiveFactor":[0,0,0],"name":"Material","pbrMetallicRoughness":{"baseColorFactor":[0.029557,0.005182,0.004025,1],"metallicFactor":0,"roughnessFactor":0.7880318375580224}}],"meshes":[{"primitives":[{"attributes":{"NORMAL":1,"POSITION":0,"TEXCOORD_0":2},"indices":3,"material":0,"mode":4}]},{"primitives":[{"attributes":{"NORMAL":5,"POSITION":4,"TEXCOORD_0":6},"indices":7,"material":1,"mode":4}]}],"nodes":[{"children":[1],"name":"RootNode (gltf orientation matrix)","rotation":[-0.7071067811865475,0,0,0.7071067811865476]},{"children":[2],"name":"RootNode (model correction matrix)"},{"children":[3,4],"name":"meme.obj.cleaner.materialmerger.gles"},{"mesh":0,"name":""},{"mesh":1,"name":""}],"samplers":[{"magFilter":9729,"minFilter":9987,"wrapS":10497,"wrapT":10497}],"scene":0,"scenes":[{"name":"OSG_Scene","nodes":[0]}],"textures":[{"sampler":0,"source":0}]}